<svg xmlns="http://www.w3.org/2000/svg" viewBox="0 0 32 32">
  <g fill="none" stroke="#15161a" stroke-width="3.6" stroke-linecap="square" stroke-linejoin="miter" class="ink">
    <path d="M 11 4 L 5 4 L 5 14.5 L 1.5 16 L 5 17.5 L 5 28 L 11 28"/>
    <path d="M 21 4 L 27 4 L 27 14.5 L 30.5 16 L 27 17.5 L 27 28 L 21 28"/>
  </g>
  <g fill="#5b21b6">
    <rect x="8"   y="9"  width="2.5" height="14"/>
    <rect x="8"   y="9"  width="6"   height="2.5"/>
    <rect x="8"   y="14.75" width="4.3" height="2.5"/>
    <rect x="8"   y="20.5" width="6"   height="2.5"/>
    <rect x="18"  y="9"  width="2.5" height="14"/>
    <rect x="18"  y="9"  width="6"   height="2.5"/>
    <rect x="18"  y="14.75" width="4.3" height="2.5"/>
    <rect x="18"  y="20.5" width="6"   height="2.5"/>
    <circle cx="16" cy="16" r="1.6"/>
  </g>
  <style>
    @media (prefers-color-scheme: dark) {
      .ink { stroke: #fcfcfa; }
    }
  </style>
</svg>
